<svg width="16" height="16" viewBox="0 0 16 16" fill="none" xmlns="http://www.w3.org/2000/svg">
<path d="M8.05115 1.99866C8.05684 1.99867 8.06298 1.99868 8.06955 1.9987L8.14035 1.99892C8.96214 2.00194 13.1273 2.03213 14.2503 2.33404C14.9387 2.51868 15.4808 3.06284 15.6648 3.75357C15.7661 4.13307 15.8367 4.63747 15.8859 5.15622L15.8954 5.26013C15.9032 5.34683 15.9103 5.43372 15.9169 5.52029L15.9246 5.62399C15.9904 6.5381 15.998 7.3935 15.9989 7.58065L15.999 7.6059C15.999 7.60797 15.999 7.61135 15.999 7.61135V7.62552C15.999 7.62552 15.999 7.6289 15.999 7.63097L15.9989 7.65621C15.998 7.85044 15.9898 8.76433 15.9169 9.71664L15.9087 9.82064L15.9 9.92476C15.8505 10.4973 15.7762 11.0659 15.6648 11.4833C15.4808 12.174 14.9387 12.7183 14.2503 12.9028C13.0898 13.2149 8.68109 13.2368 8.06955 13.2383L8.02246 13.2384C8.0186 13.2384 8.0152 13.2384 8.01228 13.2384L7.99307 13.2384C7.99307 13.2384 7.98866 13.2384 7.98573 13.2384L7.92846 13.2383C7.61941 13.2375 6.34057 13.2316 5.0013 13.1856L4.83007 13.1795C4.8015 13.1784 4.77292 13.1774 4.74434 13.1763L4.57291 13.1695L4.40188 13.1622C3.29238 13.1135 2.23452 13.0337 1.74789 12.9028C1.05947 12.7183 0.517371 12.174 0.333379 11.4833C0.221913 11.0659 0.147602 10.4973 0.0980616 9.92476L0.0893244 9.82064L0.0811165 9.71664C0.0109033 8.79896 0.000711116 7.91695 -0.000768403 7.68023L-0.000945201 7.64634C-0.000957608 7.64329 -0.000967947 7.64048 -0.000976562 7.63791V7.59895C-0.000967947 7.59639 -0.000957608 7.59358 -0.000945201 7.59053L-0.000768403 7.55664C0.000571538 7.34226 0.00905783 6.59862 0.0628044 5.77854L0.0697612 5.67567C0.0709608 5.65847 0.0721808 5.64124 0.0734215 5.62399L0.0811165 5.52029C0.0877404 5.43372 0.0948985 5.34683 0.102634 5.26013L0.112196 5.15622C0.16142 4.63747 0.232046 4.13307 0.333379 3.75357C0.517371 3.06284 1.05947 2.51868 1.74789 2.33404C2.23452 2.20321 3.29238 2.12341 4.40188 2.07473L4.57291 2.06748L4.74434 2.06071C4.77292 2.05962 4.8015 2.05855 4.83007 2.0575L5.0013 2.05141C6.25508 2.00837 7.45591 2.0004 7.85767 1.99892L7.92846 1.9987C7.93504 1.99868 7.94117 1.99867 7.94686 1.99866H8.05115ZM6.39905 5.20985V10.027L10.5558 7.61857L6.39905 5.20985Z" fill="black"/>
</svg>
